<svg id="visual" viewBox="0 0 900 600" width="900" height="600" xmlns="http://www.w3.org/2000/svg" xmlns:xlink="http://www.w3.org/1999/xlink" version="1.1"><rect x="0" y="0" width="900" height="600" fill="#0a0a0f"></rect><g fill="#00f7ff"><circle r="14" cx="464" cy="481"></circle><circle r="1" cx="307" cy="543"></circle><circle r="4" cx="287" cy="441"></circle><circle r="2" cx="218" cy="12"></circle><circle r="10" cx="250" cy="100"></circle><circle r="0" cx="585" cy="507"></circle><circle r="8" cx="818" cy="529"></circle><circle r="2" cx="784" cy="94"></circle><circle r="2" cx="329" cy="325"></circle><circle r="1" cx="629" cy="504"></circle><circle r="11" cx="732" cy="162"></circle><circle r="11" cx="430" cy="558"></circle><circle r="10" cx="46" cy="257"></circle><circle r="7" cx="779" cy="422"></circle><circle r="10" cx="166" cy="191"></circle><circle r="9" cx="200" cy="236"></circle><circle r="9" cx="349" cy="116"></circle><circle r="2" cx="638" cy="248"></circle><circle r="6" cx="218" cy="78"></circle><circle r="1" cx="484" cy="379"></circle><circle r="5" cx="481" cy="185"></circle><circle r="8" cx="571" cy="194"></circle><circle r="4" cx="496" cy="82"></circle><circle r="3" cx="683" cy="74"></circle><circle r="9" cx="169" cy="31"></circle><circle r="12" cx="603" cy="441"></circle><circle r="2" cx="517" cy="320"></circle><circle r="9" cx="361" cy="358"></circle><circle r="5" cx="372" cy="181"></circle><circle r="9" cx="319" cy="150"></circle><circle r="4" cx="499" cy="157"></circle><circle r="12" cx="516" cy="531"></circle><circle r="2" cx="418" cy="419"></circle><circle r="12" cx="346" cy="435"></circle><circle r="6" cx="135" cy="215"></circle><circle r="3" cx="195" cy="381"></circle><circle r="6" cx="110" cy="243"></circle><circle r="9" cx="123" cy="85"></circle><circle r="10" cx="421" cy="125"></circle><circle r="3" cx="80" cy="137"></circle><circle r="6" cx="136" cy="336"></circle><circle r="2" cx="824" cy="590"></circle><circle r="4" cx="491" cy="343"></circle><circle r="7" cx="380" cy="32"></circle><circle r="12" cx="125" cy="299"></circle><circle r="9" cx="581" cy="570"></circle><circle r="7" cx="23" cy="571"></circle><circle r="9" cx="53" cy="384"></circle><circle r="9" cx="25" cy="232"></circle><circle r="9" cx="48" cy="467"></circle><circle r="7" cx="832" cy="405"></circle><circle r="11" cx="384" cy="477"></circle><circle r="5" cx="415" cy="310"></circle><circle r="1" cx="564" cy="298"></circle><circle r="0" cx="181" cy="489"></circle><circle r="4" cx="667" cy="99"></circle><circle r="6" cx="666" cy="232"></circle><circle r="11" cx="412" cy="235"></circle><circle r="6" cx="665" cy="366"></circle><circle r="3" cx="69" cy="580"></circle><circle r="2" cx="332" cy="26"></circle><circle r="5" cx="211" cy="519"></circle><circle r="5" cx="381" cy="582"></circle><circle r="5" cx="729" cy="463"></circle><circle r="12" cx="825" cy="498"></circle><circle r="11" cx="99" cy="189"></circle><circle r="1" cx="337" cy="297"></circle><circle r="10" cx="852" cy="34"></circle><circle r="0" cx="490" cy="595"></circle><circle r="9" cx="696" cy="550"></circle><circle r="2" cx="47" cy="526"></circle><circle r="2" cx="680" cy="518"></circle><circle r="7" cx="838" cy="556"></circle><circle r="3" cx="246" cy="414"></circle><circle r="7" cx="191" cy="413"></circle><circle r="0" cx="793" cy="230"></circle><circle r="6" cx="429" cy="445"></circle><circle r="11" cx="570" cy="538"></circle><circle r="4" cx="772" cy="506"></circle><circle r="2" cx="300" cy="100"></circle><circle r="0" cx="386" cy="226"></circle><circle r="1" cx="582" cy="424"></circle><circle r="8" cx="201" cy="462"></circle><circle r="6" cx="320" cy="465"></circle><circle r="5" cx="888" cy="344"></circle><circle r="9" cx="12" cy="31"></circle><circle r="5" cx="704" cy="126"></circle><circle r="4" cx="44" cy="72"></circle><circle r="8" cx="145" cy="430"></circle><circle r="4" cx="96" cy="508"></circle><circle r="0" cx="532" cy="87"></circle><circle r="2" cx="692" cy="301"></circle><circle r="5" cx="208" cy="328"></circle><circle r="9" cx="216" cy="547"></circle><circle r="2" cx="66" cy="193"></circle><circle r="12" cx="50" cy="42"></circle><circle r="5" cx="627" cy="114"></circle><circle r="4" cx="711" cy="64"></circle><circle r="11" cx="480" cy="276"></circle><circle r="9" cx="287" cy="478"></circle><circle r="6" cx="666" cy="196"></circle></g></svg>